<?xml version="1.0" standalone="no"?><!DOCTYPE svg PUBLIC "-//W3C//DTD SVG 1.1//EN" "http://www.w3.org/Graphics/SVG/1.1/DTD/svg11.dtd"><svg t="1543979265321" class="icon" style="" viewBox="0 0 1024 1024" version="1.1" xmlns="http://www.w3.org/2000/svg" p-id="6326" xmlns:xlink="http://www.w3.org/1999/xlink" width="128" height="128"><defs><style type="text/css"></style></defs><path d="M451.94752 289.9712H290.46784v161.47456H451.9424V289.9712z m-40.3712 121.10848h-80.7424v-80.7424h80.7424v80.7424zM734.53056 289.9712h-161.47456v161.47456h161.47456V289.9712z m-40.3712 121.10848H613.4272v-80.7424h80.73728v80.7424zM451.94752 572.55424H290.46784v161.47456H451.9424v-161.47456z m-40.3712 121.10336h-80.7424v-80.73728h80.7424v80.73728z" fill="#ff6700" p-id="6327"></path><path d="M512.49664 0c-282.77248 0-512 229.23264-512 512s229.22752 512 512 512 512.01024-229.22752 512.01024-512c0-282.76736-229.24288-512-512.01024-512z m-20.18304 774.4H250.10176v-242.21696h242.21696v242.21696z m0-282.58304H250.10176V249.6h242.21696v242.21696z m201.84576 282.58304h-40.3712v-80.7424h40.3712v80.7424z m80.7424 0h-40.3712v-80.7424h40.3712v80.7424z m0-121.10848H613.4272v-40.36608h-40.3712v161.47456h-40.3712v-242.21696h121.10848v80.7424h80.7424v-80.7424h40.3712v121.10848z m0-161.47456H532.6848V249.6h242.21696v242.21696z" fill="#ff6700" p-id="6328"></path></svg>