<?xml version="1.0" standalone="no"?><!DOCTYPE svg PUBLIC "-//W3C//DTD SVG 1.1//EN" "http://www.w3.org/Graphics/SVG/1.1/DTD/svg11.dtd"><svg t="1543979185880" class="icon" style="" viewBox="0 0 1024 1024" version="1.1" xmlns="http://www.w3.org/2000/svg" p-id="1751" xmlns:xlink="http://www.w3.org/1999/xlink" width="128" height="128"><defs><style type="text/css"></style></defs><path d="M512 1024C229.2224 1024 0 794.7776 0 512S229.2224 0 512 0s512 229.2224 512 512-229.2224 512-512 512z m306.816-424.448c0-81.1264-71.0656-147.5328-161.1264-153.2672a228.9408 228.9408 0 0 0-12.6464-0.384c-96 0-173.7728 68.8128-173.7728 153.6512 0 12.8 1.792 25.1904 5.1712 37.0176 18.688 66.9696 87.0656 116.6336 168.6016 116.6336a190.7968 190.7968 0 0 0 77.1584-15.9744l38.9888 27.0848s10.3936 7.3984 9.3952-6.8352l-11.008-42.4192c36.352-28.1088 59.2384-69.4272 59.2384-115.5072z m-112.0256-35.6608a24.7552 24.7552 0 0 1-24.3968-25.1136c0-13.824 10.9568-25.0368 24.3968-25.0368 13.44 0 24.3968 11.2128 24.3968 25.0368 0 13.9008-10.9568 25.088-24.3968 25.088z m-125.44 0a24.7552 24.7552 0 0 1-24.3968-25.1136c0-13.824 10.9312-25.0368 24.3712-25.0368 13.4656 0 24.3968 11.2128 24.3968 25.0368 0 13.9008-10.9312 25.088-24.3968 25.088z m63.6928-130.7904c3.7632 0 7.424 0.1792 11.1104 0.3328C641.792 347.5456 558.208 281.6 457.1392 281.6 346.0352 281.6 256 361.2928 256 459.4944c0 54.7328 27.9808 103.68 71.936 136.32l-14.8736 56.96s-5.0688 18.9184 14.1568 10.4192l55.424-38.4512c23.04 8.192 48.128 12.6976 74.496 12.6976 2.2528 0 4.4288-0.1536 6.6304-0.1536a147.7632 147.7632 0 0 1-4.9152-37.7344c0-91.7504 83.5584-166.4512 186.1888-166.4512z m-266.0864-6.3488a24.7296 24.7296 0 0 1-24.3968-25.0112c0-13.9008 10.9568-25.1136 24.3968-25.1136 13.5168 0 24.3968 11.2128 24.3968 25.088 0 13.824-10.88 25.0368-24.3968 25.0368z m153.6-50.1248c13.44 0 24.3968 11.2128 24.3968 25.088 0 13.824-10.9568 25.0368-24.3968 25.0368a24.6784 24.6784 0 0 1-24.3968-25.0112c0-13.9008 10.88-25.1136 24.3968-25.1136z" fill="#03BC08" p-id="1752"></path></svg>