<?xml version="1.0" standalone="no"?><!DOCTYPE svg PUBLIC "-//W3C//DTD SVG 1.1//EN" "http://www.w3.org/Graphics/SVG/1.1/DTD/svg11.dtd"><svg t="1543561120859" class="icon" style="" viewBox="0 0 1821 1024" version="1.1" xmlns="http://www.w3.org/2000/svg" p-id="4105" xmlns:xlink="http://www.w3.org/1999/xlink" width="227.625" height="128"><defs><style type="text/css"></style></defs><path d="M1175.733333 183.2H643.333333c-49.066667 0-88.666667 11.866667-88.666666 49.866667v22.8h709.733333v-22.8c0.133333-38-39.6-49.866667-88.666667-49.866667" fill="#999999" p-id="4106"></path><path d="M1095.6 231.6l-17.333333-123.733333C1074.933333 83.733333 1052.266667 64 1027.866667 64H791.333333c-24.4 0-47.066667 19.733333-50.533333 44l-17.333333 123.733333c-3.333333 24.133333 13.866667 19.6 38.266666 19.6h295.733334c24.4 0 41.6 4.533333 38.133333-19.733333z m-316.266667-25.066667l13.6-97.733333h233.066667l13.6 97.733333H779.333333z m411.2 104.666667H628.666667c-32.533333 0-56.8 26.533333-53.866667 58.933333l48.4 532.8c2.933333 32.4 32 58.933333 64.533333 58.933334h443.6c32.533333 0 61.6-26.533333 64.533334-58.933334l48.4-532.8c3.066667-32.4-21.2-58.933333-53.733334-58.933333zM791.333333 900.133333h-114.933333l-38.266667-520.4h153.2v520.4z m194.533334 0h-153.333334V379.733333h153.2v520.4z m155.733333 0h-113.733333V379.733333h151.733333l-38 520.4z m0 0" fill="#999999" p-id="4107"></path></svg>