<?xml version="1.0" standalone="no"?><!DOCTYPE svg PUBLIC "-//W3C//DTD SVG 1.1//EN" "http://www.w3.org/Graphics/SVG/1.1/DTD/svg11.dtd"><svg t="1543904021039" class="icon" style="" viewBox="0 0 1705 1024" version="1.1" xmlns="http://www.w3.org/2000/svg" p-id="9480" xmlns:xlink="http://www.w3.org/1999/xlink" width="213.125" height="128"><defs><style type="text/css"></style></defs><path d="M100.165 196.125h141.543a7.882 7.882 0 1 1 0 15.763H100.165a7.882 7.882 0 1 1 0-15.763z" fill="#1296db" p-id="9481"></path><path d="M178.827 133.235v141.543a7.899 7.899 0 0 1-15.763 0V133.235a7.89 7.89 0 0 1 15.763 0z m75.795 239.218h100.089a5.016 5.016 0 1 1 0 10.03H254.622a5.016 5.016 0 1 1 0-10.03z" fill="#1296db" p-id="9482"></path><path d="M309.682 327.424v100.089a5.016 5.016 0 0 1-10.03 0V327.424a5.016 5.016 0 0 1 10.03 0zM1391.6 632.27h107.237a5.382 5.382 0 0 1 0 10.756h-107.237a5.374 5.374 0 0 1 0-10.756z" fill="#1296db" p-id="9483"></path><path d="M1450.591 584.025V691.27a5.374 5.374 0 0 1-10.747 0V584.025a5.374 5.374 0 0 1 10.747 0zM64.775 1008.22h141.552a7.899 7.899 0 0 1 0 15.771H64.775a7.882 7.882 0 1 1 0-15.771z m226.142 0h259.535a7.882 7.882 0 1 1 0 15.771H290.917a7.882 7.882 0 1 1 0-15.771z m344.134 0h1006.795a7.899 7.899 0 0 1 0 15.771H635.051a7.882 7.882 0 0 1 0-15.771zM1108.3 229.639c0-47.144-33.693-80.828-76.367-80.828H608.532c-40.432 0-89.853 31.432-89.853 77.458v423.188c0 42.65 37.062 78.585 84.231 78.585V696.61c-31.449 0-49.421-22.45-49.421-47.153V226.27c0-25.82 30.332-44.9 56.151-44.9h423.402c25.82 0 44.926 16.829 44.926 48.27H696.124c-42.675 0-78.61 34.801-78.61 78.576v423.188c0 42.657 34.818 79.702 78.61 79.702h423.401c42.683 0 81.988-34.801 81.988-78.576V309.34c0-42.649-39.305-79.702-81.988-79.702H1108.3zM832.02 699.97H675.917v-34.793H832.02v34.793z m112.303-112.244H675.917v-34.793h268.406v34.793z m112.303-112.26h-380.71v-34.793h380.71v34.793z m89.853-112.243H674.791v-34.802h471.688v34.802z" fill="#1296db" p-id="9484"></path></svg>