<?xml version="1.0" standalone="no"?><!DOCTYPE svg PUBLIC "-//W3C//DTD SVG 1.1//EN" "http://www.w3.org/Graphics/SVG/1.1/DTD/svg11.dtd"><svg t="1543821787710" class="icon" style="" viewBox="0 0 1024 1024" version="1.1" xmlns="http://www.w3.org/2000/svg" p-id="3680" xmlns:xlink="http://www.w3.org/1999/xlink" width="128" height="128"><defs><style type="text/css"></style></defs><path d="M1007.935354 512.646465c0-5.947475-1.034343-10.989899-1.29293-11.507071-0.258586-2.973737-1.163636-8.40404-2.19798-11.248485-0.258586-0.646465-0.517172-1.422222-0.90505-2.19798-0.517172-1.680808-1.034343-3.232323-1.680808-4.525252-91.539394-200.274747-288.711111-334.868687-490.537374-334.868687-201.826263 0-398.868687 134.464646-490.020202 333.70505-1.034343 2.19798-1.810101 4.266667-2.327273 6.076768-0.258586 0.517172-0.517172 1.163636-0.646464 1.680808-1.810101 5.30101-1.810101 8.921212-1.680808 8.016162-0.905051 3.878788-1.680808 11.507071-1.680808 11.50707-0.258586 2.327273-0.258586 4.137374 0 6.464647 0 0 0.775758 6.723232 1.163636 8.016162 0.129293 1.939394 0.646465 4.654545 1.163636 7.240404 0.517172 2.19798 1.163636 4.266667 2.068687 6.335353 0.517172 1.551515 1.034343 3.10303 1.551515 4.137374C112.711111 742.012121 309.753535 876.606061 511.450505 876.606061c201.826263 0 398.99798-134.464646 489.50303-332.8 1.422222-2.585859 2.327273-5.042424 2.973738-7.111112 0.258586-0.646465 0.517172-1.163636 0.646464-1.810101 1.551515-4.654545 1.939394-8.662626 1.810101-8.662626 0.646465-3.10303 1.551515-7.886869 1.551516-13.575757z m-66.844445 2.456565c0 0.129293-0.129293 0.387879-0.129293 0.517172-0.129293 0.387879-0.258586 0.905051-0.387879 1.422222-81.454545 175.579798-253.543434 293.365657-428.993939 293.365657-175.062626 0-346.892929-117.527273-429.123232-293.753536-0.129293-0.646465-0.387879-1.163636-0.517172-1.810101-0.129293-0.517172-0.129293-1.034343-0.258586-1.422222 0-0.387879-0.129293-0.775758-0.258586-1.292929v-0.387879l0.387879-2.327273c0.129293-0.387879 0.258586-0.905051 0.387879-1.292929 81.583838-175.579798 253.80202-293.494949 429.252525-293.494949 175.579798 0 347.79798 118.044444 428.993939 293.365656 0.129293 0.387879 0.129293 0.646465 0.258586 0.905051 0.129293 0.258586 0.129293 0.646465 0.258586 0.90505 0.129293 1.292929 0.387879 2.585859 0.517172 3.232323-0.129293 0.646465-0.258586 1.422222-0.387879 2.068687z m0 0" p-id="3681" fill="#1296db"></path><path d="M511.450505 347.022222c-91.280808 0-165.494949 74.214141-165.494949 165.49495s74.214141 165.494949 165.494949 165.494949 165.494949-74.214141 165.49495-165.494949-74.214141-165.494949-165.49495-165.49495z m0 264.791919c-54.690909 0-99.29697-44.606061-99.29697-99.296969s44.606061-99.29697 99.29697-99.29697 99.29697 44.606061 99.29697 99.29697-44.476768 99.29697-99.29697 99.296969z m0 0" p-id="3682" fill="#1296db"></path></svg>