<?xml version="1.0" standalone="no"?><!DOCTYPE svg PUBLIC "-//W3C//DTD SVG 1.1//EN" "http://www.w3.org/Graphics/SVG/1.1/DTD/svg11.dtd"><svg t="1543576640912" class="icon" style="" viewBox="0 0 1026 1024" version="1.1" xmlns="http://www.w3.org/2000/svg" p-id="5515" xmlns:xlink="http://www.w3.org/1999/xlink" width="128.25" height="128"><defs><style type="text/css"></style></defs><path d="M498.375111 792.149333c-154.197333 0-218.311111-138.609778-220.984889-144.526222l51.882667-23.324444c2.048 4.522667 51.256889 110.961778 169.073778 110.961778 126.122667-1.479111 174.108444-106.467556 176.071111-110.933333l51.996444 23.068444c-2.588444 5.831111-65.137778 142.848-225.052444 144.725333L498.375111 792.149333zM502.243556 924.444444c-211.740444 0-384-172.259556-384-384s172.259556-384 384-384 384 172.259556 384 384S713.984 924.444444 502.243556 924.444444zM502.243556 213.333333c-180.366222 0-327.111111 146.744889-327.111111 327.111111s146.744889 327.111111 327.111111 327.111111 327.111111-146.744889 327.111111-327.111111S682.638222 213.333333 502.243556 213.333333zM346.453333 473.770667c0 24.462222 19.825778 44.344889 44.344889 44.344889s44.344889-19.854222 44.344889-44.344889-19.825778-44.344889-44.344889-44.344889S346.453333 449.28 346.453333 473.770667zM568.661333 473.770667c0 24.462222 19.825778 44.344889 44.344889 44.344889s44.344889-19.854222 44.344889-44.344889-19.825778-44.344889-44.344889-44.344889S568.661333 449.28 568.661333 473.770667z" p-id="5516" fill="#1296db"></path></svg>