<?xml version="1.0" standalone="no"?><!DOCTYPE svg PUBLIC "-//W3C//DTD SVG 1.1//EN" "http://www.w3.org/Graphics/SVG/1.1/DTD/svg11.dtd"><svg t="1543637266090" class="icon" style="" viewBox="0 0 1024 1024" version="1.1" xmlns="http://www.w3.org/2000/svg" p-id="1066" xmlns:xlink="http://www.w3.org/1999/xlink" width="128" height="128"><defs><style type="text/css"></style></defs><path d="M512 512m-512 0a512 512 0 1 0 1024 0 512 512 0 1 0-1024 0Z" fill="#dbdbdb" p-id="1067" data-spm-anchor-id="a313x.7781069.0.i0" class="selected"></path><path d="M755.308544 322.096128a6.064128 6.064128 0 0 0-7.979008-0.372736L419.969024 594.44224c-2.234368 1.862656-6.040576 1.965056-8.404992 0.150528L277.074944 491.517952a5.270528 5.270528 0 0 0-7.497728 1.1008l-22.608896 30.759936a6.587392 6.587392 0 0 0 0.534528 8.264704l164.574208 170.322944a5.358592 5.358592 0 0 0 7.600128 0.09728l356.9664-351.307776a5.30432 5.30432 0 0 0-0.01024-7.595008l-21.3248-21.064704z" fill="#FFFFFF" p-id="1068"></path></svg>