<?xml version="1.0" standalone="no"?><!DOCTYPE svg PUBLIC "-//W3C//DTD SVG 1.1//EN" "http://www.w3.org/Graphics/SVG/1.1/DTD/svg11.dtd"><svg t="1543899819311" class="icon" style="" viewBox="0 0 1463 1024" version="1.1" xmlns="http://www.w3.org/2000/svg" p-id="6491" xmlns:xlink="http://www.w3.org/1999/xlink" width="182.875" height="128"><defs><style type="text/css"></style></defs><path d="M1422.31072 321.368593a64.998658 64.998658 0 0 0-37.142091 23.399517 63.512974 63.512974 0 0 0-14.113994 37.14209 62.027291 62.027291 0 0 0 10.028364 37.142091 62.770133 62.770133 0 0 0 33.427882 26.370884 60.913028 60.913028 0 0 1 30.456514 24.513779 72.055655 72.055655 0 0 1 11.142627 34.542144 66.855762 66.855762 0 0 1-7.056997 34.542144 53.113189 53.113189 0 0 1-24.51378 24.51378c-33.799302 16.34252-51.627505 37.14209-53.113189 59.055923a57.57024 57.57024 0 0 0 37.14209 54.970294 67.227183 67.227183 0 0 1 29.713672 25.628042 74.284181 74.284181 0 0 1 12.25689 37.14209 65.370079 65.370079 0 0 1-7.056997 34.542144 44.941929 44.941929 0 0 1-26.370884 21.542413 68.341446 68.341446 0 0 0-37.14209 22.285254 59.055924 59.055924 0 0 0-14.113995 34.542144 62.398712 62.398712 0 0 0 10.028365 37.14209 84.683966 84.683966 0 0 0 37.14209 30.456514 47.541876 47.541876 0 0 1 23.399517 25.628042 65.370079 65.370079 0 0 1 5.199893 33.799302 63.884395 63.884395 0 0 1-11.142627 29.342252 29.342251 29.342251 0 0 1-25.256622 13.371152H337.761684V1.203775h1077.120618a29.342251 29.342251 0 0 1 25.628042 13.371153 56.084556 56.084556 0 0 1 10.028364 29.342251 63.512974 63.512974 0 0 1-7.056997 32.685039 43.827667 43.827667 0 0 1-26.370884 22.285255 61.284449 61.284449 0 0 0-29.713672 20.428149A62.398712 62.398712 0 0 0 1375.140265 149.772136a50.884664 50.884664 0 0 0 8.17126 33.799302 62.398712 62.398712 0 0 0 34.542144 24.51378 70.941392 70.941392 0 0 1 29.713672 24.513779 66.112921 66.112921 0 0 1 12.25689 33.427882 55.713135 55.713135 0 0 1-8.17126 32.685039 49.027559 49.027559 0 0 1-29.342251 21.542412z" fill="#1296db" p-id="6492" data-spm-anchor-id="a313x.7781069.0.i11" class=""></path><path d="M600.356262 464.737062q37.14209 17.085362 74.284181 30.827934-22.285254 104.369274-56.827398 225.823909a835.697031 835.697031 0 0 0-78.369811-40.484878 2173.555122 2173.555122 0 0 0 60.913028-216.166965z m11.514048-232.880906a1325.22978 1325.22978 0 0 1 72.427076 135.568629l-76.141285 37.14209q-27.485147-65.7415-65.370079-138.168575z m554.159987 52.370347v77.998389h-119.597531q2.971367 115.883322 8.17126 182.739085A734.670545 734.670545 0 0 0 1096.946009 409.766768l70.198551 19.313887a980.179762 980.179762 0 0 1-96.569435 237.709378 154.511095 154.511095 0 0 0 23.028096 60.541607q6.314155 10.771206 12.628311 9.656943t13.742573-104.369273a450.904976 450.904976 0 0 0 58.313082 17.085361q-7.056997 179.767717-71.684235 179.767717T1018.947619 744.04558a749.155961 749.155961 0 0 1-74.28418 85.426808A525.189156 525.189156 0 0 0 892.293092 770.416464a621.015749 621.015749 0 0 0 56.455977-56.827398h-97.683698v37.142091h-63.884395v-242.53785h164.910881v201.68155a703.471189 703.471189 0 0 0 44.941929-58.684502 2589.175112 2589.175112 0 0 1-24.142358-288.965463h-207.624285v151.539729q0 209.85281-61.284449 319.793397A950.094669 950.094669 0 0 0 623.384358 781.187671a491.018433 491.018433 0 0 0 63.884395-266.308788V284.226503h282.279886L966.577272 199.913958h74.284181q0 19.313887 1.857104 84.312545h45.684771q-17.085362-25.256621-40.113457-53.856031l54.970293-33.427881a663.357732 663.357732 0 0 1 51.256085 60.541607l-44.199088 26.742305z m-378.849321 117.740426h166.396565v63.884395h-166.396565z m101.026486 250.337688V569.477756h-37.142091v82.45544z" fill="#ffffff" p-id="6493" data-spm-anchor-id="a313x.7781069.0.i12" class="selected"></path><path d="M0.882925 103.344523A124.426002 124.426002 0 0 1 20.196812 24.603292 111.426271 111.426271 0 0 1 106.366462 1.203775h163.796618v1021.778903H106.366462A119.597531 119.597531 0 0 1 24.653863 1004.040212 100.283644 100.283644 0 0 1 0.882925 924.92756v-294.165355A61.284449 61.284449 0 0 1 8.311344 595.477219a44.941929 44.941929 0 0 1 29.713672-13.742573 67.970025 67.970025 0 0 0 23.770938-5.942735 106.597799 106.597799 0 0 0 30.085093-19.313886 114.026217 114.026217 0 0 0 25.999463-34.913565 115.511901 115.511901 0 0 0 10.771206-51.998927 98.79796 98.79796 0 0 0-26.742305-74.28418 100.655065 100.655065 0 0 0-56.827398-30.827935 71.684234 71.684234 0 0 1-34.542144-13.371153A39.742037 39.742037 0 0 1 0.882925 319.88291V103.344523z" fill="#1296db" p-id="6494"></path></svg>