<?xml version="1.0" standalone="no"?><!DOCTYPE svg PUBLIC "-//W3C//DTD SVG 1.1//EN" "http://www.w3.org/Graphics/SVG/1.1/DTD/svg11.dtd"><svg t="1543479928514" class="icon" style="" viewBox="0 0 1024 1024" version="1.1" xmlns="http://www.w3.org/2000/svg" p-id="4017" xmlns:xlink="http://www.w3.org/1999/xlink" width="128" height="128"><defs><style type="text/css"></style></defs><path d="M0 1004.050286V381.696L387.693714 0H1024z" fill="#64C303" p-id="4018"></path><path d="M301.44 611.620571L53.028571 566.381714l-0.749714 0.731429 146.834286 146.816-20.516572 20.553143L0 555.830857l21.522286-21.485714 246.381714 44.269714 0.749714-0.731428-145.334857-145.353143 20.534857-20.498286 178.578286 178.578286-20.992 21.010285z m170.093714-205.568l17.737143 17.737143-130.834286 130.816-178.578285-178.578285 126.573714-126.573715 17.773714 17.737143-106.057143 106.075429 59.794286 59.794285 100.059429-100.059428 17.737143 17.755428-100.059429 100.059429 65.536 65.517714 110.317714-110.281143z m185.618286-150.089142L467.766857 147.638857l-0.749714 0.768 108.050286 189.604572-22.747429 22.765714-229.888-127.305143 23.021714-23.021714 189.110857 110.537143 0.950858-0.987429-109.019429-190.610286 22.272-22.272 190.336 109.293715 1.060571-0.987429L529.554286 26.331429 552.576 3.328l127.323429 229.869714-22.747429 22.765715z" fill="#FFFFFF" p-id="4019"></path></svg>