<?xml version="1.0" standalone="no"?><!DOCTYPE svg PUBLIC "-//W3C//DTD SVG 1.1//EN" "http://www.w3.org/Graphics/SVG/1.1/DTD/svg11.dtd"><svg t="1543919307959" class="icon" style="" viewBox="0 0 1024 1024" version="1.1" xmlns="http://www.w3.org/2000/svg" p-id="16264" xmlns:xlink="http://www.w3.org/1999/xlink" width="128" height="128"><defs><style type="text/css"></style></defs><path d="M350.33088 852.77696l-20.97152-21.01248-8.3968 27.32032-25.16992 12.0832 23.6032 17.84832 4.7104 28.89728 23.08096-16.2816 28.84608 5.25312-9.44128-27.8528 12.58496-25.20064-28.84608-1.05472z m395.91936-17.85856l-22.54848 18.3808-29.36832-2.0992 11.01824 25.74336-11.01824 26.25536 29.36832-2.0992 22.54848 18.39104 6.81984-27.32032L778.24 877.4656l-25.16992-14.70464-6.81984-27.8528z m-179.34336 50.42176l-27.79136 7.8848-26.2144-13.66016v28.3648l-20.45952 19.43552 27.79136 9.45152L533.87264 962.56l17.3056-22.05696 28.83584-3.6864-17.3056-23.63392 4.1984-27.84256z m-38.8096-691.26144c68.7104 0 135.82336 24.1664 188.78464 67.75808l12.5952-15.74912a318.11584 318.11584 0 0 0-201.90208-72.4992c-152.59648 0-284.22144 108.73856-312.53504 258.9696l19.92704 3.67616c26.74688-140.24704 149.97504-242.15552 293.14048-242.15552zM496.64 108.46208l27.79136-7.8848 26.2144 13.66016v-28.3648l20.992-19.43552-28.32384-9.97376L529.67424 30.72l-16.77312 22.58944-29.36832 3.67616 17.3056 23.11168-4.1984 28.3648z" fill="#bfbfbf" p-id="16265"></path><path d="M512 0C229.5808 0 0 229.5808 0 512s229.5808 512 512 512 512-229.5808 512-512S793.88672 0 512 0z m406.35392 783.43168C830.49472 914.69824 681.44128 1000.99072 512 1000.99072c-269.33248 0-488.99072-219.136-488.99072-488.99072 0-269.33248 219.136-488.99072 488.99072-488.99072 269.33248 0 488.99072 219.136 488.99072 488.99072a493.07648 493.07648 0 0 1-82.6368 271.43168s-0.512 0 0 0z" fill="#bfbfbf" p-id="16266"></path><path d="M158.5664 273.58208l28.55936-0.53248 19.73248 20.59264 10.38336-27.45344 26.48064-13.2096-22.84544-16.896-3.6352-28.49792-23.88992 16.896-28.55936-4.22912 7.79264 27.45344-14.0288 25.87648z m548.864-117.21728l20.77696 21.12512 8.2944-26.9312 25.45664-12.66688-23.88992-17.96096-4.66944-28.50816-23.36768 15.84128-28.5696-5.28384 9.34912 27.98592-12.46208 25.344 29.0816 1.05472z m-397.24032 10.55744l22.3232-18.47296 29.0816 2.10944-10.9056-26.39872 10.9056-26.39872-29.0816 2.64192L310.20032 81.92l-7.2704 27.45344-24.92416 14.78656 24.92416 14.78656 7.2704 27.97568zM520.4992 788.3776c-68.02432 0-134.49216-24.28928-186.94144-68.10624l-12.98432 15.84128C376.65792 783.08352 447.7952 808.96 520.4992 808.96c151.10144 0 281.43616-109.29152 309.48352-260.3008l-19.73248-3.6864C783.7696 685.9264 661.73952 788.3776 520.4992 788.3776z m324.02432-8.97024l-28.04736-4.75136 15.58528-23.7568-6.23616-28.5184 28.03712 8.97024 24.92416-13.19936 1.04448 29.04064L901.12 768.3072l-26.48064 8.97024-11.95008 25.87648-18.16576-23.7568zM183.86944 550.2976l19.27168-7.39328 11.776 30.68928 133.9904-51.42528-22.09792-57.58976-161.54624 62.01344-6.36928-16.5888 180.36736-69.2224 40.07936 104.40704-18.82112 7.2192-5.24288-13.66016-133.9904 51.42528 25.02656 65.20832c5.2736 13.74208 14.41792 18.1248 27.41248 13.12768l110.45888-42.3936c12.84096-4.93568 18.8416-12.55424 17.9712-22.8352-0.8192-10.15808-3.47136-23.10144-7.97696-38.85056 6.8096 0.3072 14.09024 0.07168 21.85216-0.67584 3.87072 16.3328 6.38976 29.5936 7.55712 39.77216 1.9968 18.59584-7.31136 31.8464-27.92448 39.77216L276.48 689.0496c-22.85568 8.77568-38.8096 1.36192-47.872-22.24128L183.86944 550.2976zM451.3792 430.1312l96.11264-36.89472-16.42496-42.8032 18.15552-6.9632 16.42496 42.8032 38.53312-14.7968 6.27712 16.35328-38.53312 14.7968 35.69664 92.9792c7.39328 19.27168 1.83296 32.4608-16.6912 39.56736-9.70752 3.72736-21.0944 8.01792-34.14016 12.8512a336.05632 336.05632 0 0 0-11.1104-18.87232c12.41088-3.38944 23.76704-7.0656 34.07872-11.02848 9.25696-3.55328 11.80672-10.52672 7.64928-20.93056L553.7792 409.6l-96.12288 36.89472-6.27712-16.35328z m86.1184 142.00832l60.71296-22.016 67.24608-28.38528a589.7216 589.7216 0 0 0-0.36864 20.44928l-65.31072 26.09152-57.86624 20.6848c-25.8048 9.55392-47.9744 8.2944-66.49856-3.7888-2.9184 4.89472-7.96672 17.62304-15.1552 38.20544l-16.62976-15.2064c7.50592-15.0528 13.54752-26.75712 18.13504-35.1232l-29.5424-76.9536-25.98912 9.97376-6.1952-16.128 43.24352-16.59904 37.28384 97.1264c16.0768 9.08288 35.06176 9.63584 56.9344 1.66912zM476.85632 469.7088l9.79968-15.32928c24.25856 14.51008 43.008 26.08128 56.25856 34.7136l-11.07968 17.3568a879.27808 879.27808 0 0 0-54.97856-36.74112z m-84.79744-64.88064c14.21312 7.5776 30.3104 17.33632 48.26112 29.2864-4.608 5.888-8.52992 11.50976-11.776 16.86528a717.7728 717.7728 0 0 0-46.2336-31.35488l9.74848-14.7968zM732.40576 282.9312l79.31904-30.44352L881.47968 434.176c6.7584 17.62304 1.78176 29.6448-14.9504 36.07552-8.36608 3.20512-16.67072 6.144-24.90368 8.78592a320.99328 320.99328 0 0 0-9.3184-16.22016c11.3152-3.14368 19.3536-5.632 24.13568-7.46496 8.21248-3.15392 10.752-8.83712 7.58784-17.0496l-18.05312-47.0528-47.95392 18.40128c10.91584 33.34144 11.4176 64.34816 1.50528 92.99968a197.4272 197.4272 0 0 0-18.25792-7.38304c6.7584-18.5344 8.92928-35.91168 6.48192-52.11136-1.92512-15.70816-9.70752-41.34912-23.3472-76.9024l-32-83.34336z m-76.61568 190.85312l21.06368-8.0896-39.7312-103.51616-18.3808 7.0656-5.8368-15.24736 18.36032-7.04512-10.48576-27.3408 16.57856-6.35904 10.496 27.33056 46.592-17.88928-10.83392-28.23168 16.5888-6.36928 10.83392 28.23168 18.14528-6.9632 5.84704 15.23712-18.14528 6.9632 39.7312 103.5264 17.93024-6.89152 5.84704 15.23712-118.75328 45.58848-5.8368-15.23712z m137.56416-79.28832l46.94016-18.0224-16.85504-43.90912-46.15168 17.7152c7.53664 19.21024 12.9024 33.95584 16.0768 44.21632z m7.63904-120.41216l-46.16192 17.7152 16.77312 43.69408 46.16192-17.7152-16.77312-43.69408z m-107.56096 185.2416l46.60224-17.87904-9.6256-25.088-46.61248 17.87904 9.63584 25.088z m-15.13472-39.424l46.60224-17.88928-9.54368-24.87296-46.60224 17.88928 9.54368 24.87296z m-15.0528-39.2192l46.60224-17.87904-9.54368-24.8832-46.60224 17.89952 9.54368 24.87296z m37.67296 98.14016l17.79712 5.50912c-8.83712 22.07744-17.33632 41.02144-25.4976 56.832-4.5056-2.37568-9.984-4.8128-16.42496-7.31136a355.2256 355.2256 0 0 0 24.12544-55.02976z m33.39264-0.72704l6.54336-15.11424c13.43488 3.75808 26.30656 7.81312 38.6048 12.17536l-6.97344 17.32608a375.77728 375.77728 0 0 0-38.17472-14.3872z" fill="#bfbfbf" p-id="16267"></path></svg>