<?xml version="1.0" standalone="no"?><!DOCTYPE svg PUBLIC "-//W3C//DTD SVG 1.1//EN" "http://www.w3.org/Graphics/SVG/1.1/DTD/svg11.dtd"><svg t="1543825846849" class="icon" style="" viewBox="0 0 1024 1024" version="1.1" xmlns="http://www.w3.org/2000/svg" p-id="6783" xmlns:xlink="http://www.w3.org/1999/xlink" width="128" height="128"><defs><style type="text/css"></style></defs><path d="M0 236.8c0 128 230.4 236.8 512 236.8s512-102.4 512-236.8S793.6 0 512 0 0 108.8 0 236.8z" fill="#FF7366" p-id="6784"></path><path d="M512 569.6c-217.6 0-403.2-64-480-147.2-25.6 32-32 57.6-32 89.6 0 128 230.4 236.8 512 236.8S1024 640 1024 512c0-32-12.8-57.6-32-83.2C915.2 512 729.6 569.6 512 569.6z" fill="#FF7366" p-id="6785"></path><path d="M512 851.2c-217.6 0-403.2-64-480-147.2-25.6 19.2-32 51.2-32 83.2 0 128 230.4 236.8 512 236.8s512-102.4 512-236.8c0-32-12.8-57.6-32-83.2-76.8 83.2-262.4 147.2-480 147.2z" fill="#FF7366" p-id="6786"></path></svg>