<?xml version="1.0" standalone="no"?><!DOCTYPE svg PUBLIC "-//W3C//DTD SVG 1.1//EN" "http://www.w3.org/Graphics/SVG/1.1/DTD/svg11.dtd"><svg t="1543825913063" class="icon" style="" viewBox="0 0 1024 1024" version="1.1" xmlns="http://www.w3.org/2000/svg" p-id="8390" xmlns:xlink="http://www.w3.org/1999/xlink" width="128" height="128"><defs><style type="text/css"></style></defs><path d="M783.292 699.951c-1.069-21.639-12.434-250.801-19.119-319.946-5.884-61.002-45.903-82.74-81.38-82.74-2.961 0-5.31 0.162-6.866 0.306H344.536c-19.623 0-36.728 4.292-50.862 12.74-11.858 7.09-21.377 16.924-28.306 29.233-10.311 18.3-11.48 36.358-11.607 40.623-0.863 13.973-14.188 231.206-14.188 322.161 0 50.42 22.106 75.783 40.65 88.191 21.449 14.351 45.419 16.491 57.79 16.491 3.365 0 5.965-0.152 7.513-0.278h331.59c39.976 0 69.64-11.498 88.164-34.172 10.914-13.361 17.437-30.456 18.858-49.431 0.801-10.761-0.251-19.407-0.846-23.178zM387.237 438.056c17.167 0 31.086 13.919 31.086 31.086 0 17.167-13.919 31.087-31.086 31.087s-31.086-13.92-31.086-31.087 13.919-31.086 31.086-31.086z m272.297 120.969c-4.067 36.044-21.217 69.299-48.29 93.645-27.297 24.545-62.549 38.059-99.285 38.059-75.254 0-138.659-56.278-147.485-130.911-1.395-11.85 7.073-22.583 18.912-23.986 11.841-1.396 22.584 7.071 23.979 18.912 6.262 52.904 51.222 92.798 104.594 92.798 53.66 0 98.655-40.127 104.657-93.356 1.341-11.849 12.029-20.378 23.879-19.038 11.849 1.339 20.379 12.028 19.039 23.877z m-21.98-58.796c-17.167 0-31.087-13.92-31.087-31.087s13.92-31.086 31.087-31.086 31.086 13.919 31.086 31.086c0 17.167-13.919 31.087-31.086 31.087z" p-id="8391" fill="#1afa29"></path><path d="M375.971 324.237l-41.979-10.139c9.287-38.447 31.516-73.266 62.599-98.051 31.585-25.189 71.269-39.058 111.743-39.058 40.474 0 80.157 13.868 111.743 39.054 31.083 24.789 53.313 59.607 62.599 98.05l-41.979 10.143c-7.043-29.164-23.932-55.594-47.545-74.424-24.315-19.387-53.645-29.636-84.818-29.636-31.175 0-60.504 10.249-84.818 29.636-23.615 18.831-40.502 45.264-47.545 74.425z" p-id="8392" fill="#1afa29"></path></svg>