<?xml version="1.0" standalone="no"?><!DOCTYPE svg PUBLIC "-//W3C//DTD SVG 1.1//EN" "http://www.w3.org/Graphics/SVG/1.1/DTD/svg11.dtd"><svg t="1543825873629" class="icon" style="" viewBox="0 0 1255 1024" version="1.1" xmlns="http://www.w3.org/2000/svg" p-id="7541" xmlns:xlink="http://www.w3.org/1999/xlink" width="156.875" height="128"><defs><style type="text/css"></style></defs><path d="M0 265.954468l3.554091-9.939408a68.612036 68.612036 0 0 1 126.501559-9.577975 67.88917 67.88917 0 0 1-9.216542 75.419024c-2.168598 2.409554-4.276957 4.758868-6.686511 7.529855 50.962057 31.203718 101.683158 62.046003 152.163304 93.129243 19.15595 12.047768 38.37214 23.673863 57.52809 35.119242 10.963468 6.445556 19.396906 4.517913 25.300312-6.023884 58.010001-105.71916 116.08024-211.619036 174.692629-318.482734-25.300312-12.830872-41.685276-32.468733-43.191247-61.564092a66.262721 66.262721 0 0 1 20.661921-52.106594 68.792753 68.792753 0 0 1 100.960292 5.66245c28.974881 35.480675 18.493323 77.045473-27.46891 108.429908 14.999471 27.408671 30.119419 54.998059 45.299606 82.466969q63.250779 115.176657 126.501559 230.112359c9.698453 17.770457 15.842814 19.396906 33.251838 9.035826q97.827872-59.636449 195.475028-119.694571c3.011942-1.867404 6.023884-3.795047 9.457498-6.023883a71.142067 71.142067 0 0 1-23.011236-47.468204A68.732514 68.732514 0 0 1 1096.346844 258.424613c0.783105 2.650509 1.867404 5.421495 2.891464 8.072004v23.673864c-11.083946 35.480675-33.854227 56.142597-73.009471 56.383552-1.385493 4.036002-2.891464 8.072004-4.036002 12.047767q-57.226896 196.197894-114.453792 392.636743c-4.879346 17.10783-10.963468 21.505265-28.191776 21.505265H220.534384c-18.493323 0-24.095535-4.276957-29.215836-21.505265-31.08324-106.261309-61.985764-212.763574-92.888287-318.904406-8.31296-28.673687-16.866875-57.407612-25.300312-86.201776-29.215836 0-51.263251-11.565857-64.937467-36.745691A206.739691 206.739691 0 0 1 0.120478 289.748809v-23.794341z m0 0" fill="#ffbb00" p-id="7542"></path><path d="M549.197482 841.05465h307.760221a51.32349 51.32349 0 0 1 11.565857 101.56268 45.118889 45.118889 0 0 1-11.565857 1.144538H241.196306a51.32349 51.32349 0 0 1-49.998236-35.119242 49.034414 49.034414 0 0 1 18.071652-57.166657 66.86511 66.86511 0 0 1 33.854226-10.421319c102.10483-0.481911 204.028943 0 305.892818 0z m0 0" fill="#ffbb00" p-id="7543"></path></svg>