<?xml version="1.0" standalone="no"?><!DOCTYPE svg PUBLIC "-//W3C//DTD SVG 1.1//EN" "http://www.w3.org/Graphics/SVG/1.1/DTD/svg11.dtd"><svg t="1543824484858" class="icon" style="" viewBox="0 0 1024 1024" version="1.1" xmlns="http://www.w3.org/2000/svg" p-id="5193" xmlns:xlink="http://www.w3.org/1999/xlink" width="128" height="128"><defs><style type="text/css"></style></defs><path d="M691.2 17.066667H332.8c-61.866667 0-113.066667 51.2-113.066667 113.066666v763.733334c0 61.866667 51.2 113.066667 113.066667 113.066666h358.4c61.866667 0 113.066667-51.2 113.066667-113.066666V130.133333c0-61.866667-51.2-113.066667-113.066667-113.066666zM512 962.133333c-36.266667 0-68.266667-29.866667-68.266667-68.266666 0-36.266667 29.866667-68.266667 68.266667-68.266667s68.266667 29.866667 68.266667 68.266667c0 36.266667-32 68.266667-68.266667 68.266666z m202.666667-181.333333h-405.333334V153.6h405.333334v627.2z" p-id="5194" fill="#ffffff"></path></svg>