<?xml version="1.0" standalone="no"?><!DOCTYPE svg PUBLIC "-//W3C//DTD SVG 1.1//EN" "http://www.w3.org/Graphics/SVG/1.1/DTD/svg11.dtd"><svg t="1543382202018" class="icon" style="" viewBox="0 0 1025 1024" version="1.1" xmlns="http://www.w3.org/2000/svg" p-id="9599" xmlns:xlink="http://www.w3.org/1999/xlink" width="128.125" height="128"><defs><style type="text/css"></style></defs><path d="M512.749634 37.081894c262.072035 0 475.167984 213.1959 475.167984 475.167984S774.821669 987.417862 512.749634 987.417862 37.58165 774.321913 37.58165 512.249878 250.677599 37.081894 512.749634 37.081894m0-36.582138C230.087653 0.499756 0.999512 229.587897 0.999512 512.249878s229.088141 511.750122 511.750122 511.750122 511.750122-229.088141 511.750122-511.750122S795.411615 0.499756 512.749634 0.499756z" fill="#f4ea2a" p-id="9600"></path><path d="M692.761737 280.962811c-8.495852-5.497316-19.790337-2.998536-25.287652 5.497316L523.944168 510.75061 374.916935 286.260224c-5.597267-8.3959-16.991703-10.794729-25.287652-5.09751-8.3959 5.597267-10.694778 16.891752-5.097511 25.287652l157.822938 237.783895H372.81796c-10.095071 0-18.291069 8.195998-18.291069 18.291068 0 10.095071 8.195998 18.291069 18.291069 18.291069h134.034553v73.064324H372.81796c-10.095071 0-18.291069 8.195998-18.291069 18.291069s8.195998 18.291069 18.291069 18.291069h134.034553v97.652318c0 10.095071 8.195998 18.291069 18.291069 18.291069 10.095071 0 18.291069-8.195998 18.291069-18.291069v-97.652318h121.840508c10.095071 0 18.291069-8.195998 18.291068-18.291069s-8.195998-18.291069-18.291068-18.291069H543.434651v-73.064324h121.840508c10.095071 0 18.291069-8.195998 18.291068-18.291069 0-10.095071-8.195998-18.291069-18.291068-18.291068H545.83348l152.425573-237.983797c5.497316-8.495852 3.098487-19.790337-5.497316-25.287653z" fill="#f4ea2a" p-id="9601"></path></svg>