<?xml version="1.0" standalone="no"?><!DOCTYPE svg PUBLIC "-//W3C//DTD SVG 1.1//EN" "http://www.w3.org/Graphics/SVG/1.1/DTD/svg11.dtd"><svg t="1543909493553" class="icon" style="" viewBox="0 0 1024 1024" version="1.1" xmlns="http://www.w3.org/2000/svg" p-id="12716" xmlns:xlink="http://www.w3.org/1999/xlink" width="128" height="128"><defs><style type="text/css"></style></defs><path d="M343.199859 316.466396c-5.599577-53.286294-12.824837-106.211325-18.424414-159.497618-4.696419-43.351561-24.02399-59.066502-72.433233-54.550715 9.754101 94.83154 19.688834 189.482448 29.442935 284.133357 52.021873-4.515788 66.653025-20.953255 61.414712-70.085024z" fill="#4cd964" p-id="12717"></path><path d="M404.795202 733.002646c-6.683366-0.541895-13.727994-8.309049-18.605045-14.45052-56.537661-69.543129-94.289645-148.84036-119.397425-234.279062-6.322103-21.495149-8.670312-44.43535-9.754101-66.833657-0.903158-20.230729 4.154525-40.642089 4.154525-60.872817 0-17.701887-3.251367-35.403775-5.057682-53.105662-6.683366-66.111131-13.547363-132.04163-20.41136-199.597813-54.911977-0.361263-108.198271 34.319986-126.261422 90.135121-14.089257 43.351561-25.107779 89.593226-25.649674 134.931734-1.445052 97.721644 18.06315 192.191921 56.718293 283.230199 50.576821 118.85553 115.062268 226.87317 215.312753 310.686188 42.087141 35.223143 87.425648 65.027342 143.060152 73.878286 50.576821 7.947786 93.025225-7.586523 129.69342-45.338508-58.524608-62.137238-115.2429-122.287529-172.141824-182.076557-14.631152-15.534309-26.914094-34.139354-51.66061-36.306932zM429.361087 433.876874c43.893456 43.893456 70.085024 95.012171 70.988181 158.41383 0.361263 18.966308 8.670312 36.126301 30.346093 42.08714 31.24925 8.670312 52.925031-11.921679 52.202505-50.215558 1.986947-0.541895 3.973893-1.264421 5.960839-1.806315-11.921679-39.016405-18.966308-80.38102-37.21009-116.326689-17.882519-35.403775-45.699771-65.930499-71.530076-96.637855-12.463574-14.811783-31.429882-16.076204-48.951137-5.418945-16.437467 9.934733-22.75957 25.830305-18.063151 43.712824 2.34821 9.754101 9.031575 19.146939 16.256836 26.191568zM731.918857 442.185923c-32.513671-99.347328-92.48333-179.186453-177.199506-240.420532-24.565885-17.701887-49.854295-14.811783-63.943553 6.141471-13.547363 20.050097-6.141471 41.906509 15.173047 61.053448 31.068619 27.997883 64.124184 55.453872 89.231963 88.509438 64.124184 84.354913 89.954489 180.812136 77.310284 286.662198-3.070736 25.288411 10.657259 44.796613 33.236197 48.589874 24.927148 4.154525 43.893456-9.392838 48.228612-35.945669 2.34821-14.269889 2.890104-28.901041 4.696419-48.409243-1.625684-24.204622-1.806315-53.466925-6.141472-82.006703-4.335156-28.359146-11.560416-56.718292-20.591991-84.174282z" fill="#4cd964" p-id="12718"></path><path d="M538.462515 734.267067c-34.500617-37.751984-55.27324-39.016405-96.09596-4.154525 65.569236 69.543129 130.957841 138.905627 196.527077 208.268125 33.778091-35.584406 34.319986-57.802081 3.431999-91.21891-34.681249-37.571353-69.181866-75.142706-103.863116-112.89469zM927.723408 493.846534c-21.675781-137.099312-80.742283-256.496737-177.922032-354.940907-39.5583-39.919563-87.064385-72.433233-132.583525-106.030693-20.230729-14.811783-44.796613-6.863997-56.898923 13.1861-12.102311 19.869466-6.502734 42.629035 14.269888 57.260187 6.683366 4.696419 13.727994 8.670312 20.41136 13.366731 154.981831 107.114482 242.407479 254.148527 256.496737 442.185923 3.61263 46.964191-3.431999 94.83154-6.141471 142.156995-1.625684 28.901041 10.115364 46.964191 33.958723 50.215558 24.565885 3.251367 44.074087-10.295996 47.506085-37.571353 5.96084-45.699771 9.392838-91.760804 13.547363-134.028576-4.696419-31.429882-8.489681-58.705239-12.644205-85.799965z" fill="#4cd964" p-id="12719"></path></svg>