<?xml version="1.0" standalone="no"?><!DOCTYPE svg PUBLIC "-//W3C//DTD SVG 1.1//EN" "http://www.w3.org/Graphics/SVG/1.1/DTD/svg11.dtd"><svg t="1543899739886" class="icon" style="" viewBox="0 0 1024 1024" version="1.1" xmlns="http://www.w3.org/2000/svg" p-id="4545" xmlns:xlink="http://www.w3.org/1999/xlink" width="128" height="128"><defs><style type="text/css"></style></defs><path d="M885.76 564.224c-7.168 0-12.288 5.12-12.288 12.288v95.232c0 13.312-7.168 26.624-19.456 32.768L559.104 873.472c-11.264 6.144-25.6 6.144-37.888 0L225.28 704.512c-11.264-6.144-19.456-19.456-19.456-32.768V334.848c0-13.312 7.168-26.624 19.456-32.768L520.192 133.12c11.264-6.144 25.6-6.144 37.888 0l265.216 151.552c6.144 3.072 13.312 2.048 17.408-5.12 3.072-6.144 2.048-13.312-5.12-17.408L570.368 110.592c-19.456-11.264-44.032-11.264-63.488 0L211.968 278.528c-19.456 11.264-31.744 32.768-31.744 55.296v336.896c0 22.528 12.288 44.032 31.744 55.296l294.912 167.936c9.216 5.12 20.48 8.192 31.744 8.192s21.504-3.072 31.744-8.192l295.936-168.96c19.456-11.264 31.744-32.768 31.744-55.296v-94.208c0-5.12-5.12-11.264-12.288-11.264z" fill="#3399CC" p-id="4546"></path><path d="M377.856 431.104l144.384-10.24v-86.016h53.248v81.92l122.88-8.192v44.032l-320.512 22.528v-44.032z m317.44 193.536c0 6.144-1.024 12.288-3.072 17.408-2.048 5.12-4.096 10.24-7.168 13.312-3.072 4.096-7.168 7.168-11.264 9.216-4.096 2.048-9.216 3.072-13.312 3.072H388.096V481.28h307.2v143.36z m-235.52-289.792l-11.264 81.92h-53.248l10.24-81.92h54.272z m-20.48 182.272v16.384h208.896v-16.384H439.296z m208.896 51.2H439.296v14.336h208.896v-14.336z m-6.144 64.512c4.096 0 6.144-2.048 6.144-7.168v-7.168H439.296v14.336h202.752z m50.176-231.424h-49.152l-6.144-66.56H686.08l6.144 66.56z" fill="#3399CC" p-id="4547"></path><path d="M912.384 333.824c-5.12 44.032-40.96 78.848-87.04 84.992 46.08 5.12 81.92 39.936 89.088 83.968 6.144-44.032 41.984-78.848 87.04-84.992-45.056-6.144-81.92-39.936-89.088-83.968zM140.288 694.272c-4.096 32.768-30.72 58.368-64.512 63.488 33.792 4.096 61.44 29.696 66.56 62.464 4.096-32.768 30.72-58.368 64.512-63.488-34.816-4.096-61.44-28.672-66.56-62.464zM877.568 762.88c-3.072 24.576-23.552 45.056-49.152 49.152 25.6 3.072 47.104 22.528 50.176 47.104 3.072-24.576 23.552-45.056 49.152-48.128-25.6-3.072-46.08-22.528-50.176-48.128z" fill="#3399CC" p-id="4548"></path></svg>