<?xml version="1.0" standalone="no"?><!DOCTYPE svg PUBLIC "-//W3C//DTD SVG 1.1//EN" "http://www.w3.org/Graphics/SVG/1.1/DTD/svg11.dtd"><svg t="1543382110908" class="icon" style="" viewBox="0 0 1024 1024" version="1.1" xmlns="http://www.w3.org/2000/svg" p-id="7202" xmlns:xlink="http://www.w3.org/1999/xlink" width="128" height="128"><defs><style type="text/css"></style></defs><path d="M108.208681 670.888449c20.874205-16.374376 50.998058-12.87451 67.372434 7.999695l124.495258 158.368968V48.03717c0-26.498991 21.499181-47.998172 47.998172-47.998171S396.072717 21.53818 396.072717 48.03717v927.964658c0 20.499219-12.999505 38.623529-32.373767 45.373272-4.99981 1.749933-10.374605 2.6249-15.624405 2.6249-14.499448 0-28.498915-6.499752-37.748562-18.3743L100.08399 738.260883C83.709614 717.511673 87.334476 687.262825 108.208681 670.888449zM634.063653 2.663899c19.249267-6.749743 40.748448-0.374986 53.372967 15.7494l210.241993 267.364817c16.374376 20.74921 12.749514 50.998058-8.12469 67.372434-20.74921 16.374376-50.998058 12.87451-67.372434-7.999695l-124.495259-158.368969v789.219942c0 26.498991-21.499181 47.998172-47.998172 47.998172s-47.998172-21.499181-47.998172-47.998172V48.03717c0.124995-20.374224 13.1245-38.623529 32.373767-45.373271z m0 0" fill="#3190e8" p-id="7203"></path></svg>