<?xml version="1.0" standalone="no"?><!DOCTYPE svg PUBLIC "-//W3C//DTD SVG 1.1//EN" "http://www.w3.org/Graphics/SVG/1.1/DTD/svg11.dtd"><svg t="1543382217942" class="icon" style="" viewBox="0 0 1024 1024" version="1.1" xmlns="http://www.w3.org/2000/svg" p-id="10607" xmlns:xlink="http://www.w3.org/1999/xlink" width="128" height="128"><defs><style type="text/css"></style></defs><path d="M511.968002 60.371283c249.052543 0 451.644715 202.62417 451.644716 451.660715 0 249.076541-202.592172 451.676713-451.644716 451.676712-249.044543 0-451.660714-202.600172-451.660714-451.676712 0-249.036544 202.616171-451.660714 451.660714-451.660715m0-60.307288C229.190095 0.063995 0 229.24609 0 512.031998c0 282.769909 229.190095 511.984001 511.968002 511.984001 282.737911 0 511.952004-229.214093 511.952004-511.984001C1023.920006 229.24609 794.705914 0.063995 511.968002 0.063995z" fill="#3190e8" p-id="10608"></path><path d="M643.813702 674.419311a29.997656 29.997656 0 0 1-21.318334-8.775314L490.649668 534.262261a30.133646 30.133646 0 0 1-8.863308-21.350332V230.222014c0-16.662698 13.486946-30.157644 30.157644-30.157644s30.149645 13.486946 30.149645 30.157644v270.178892l122.990391 122.542427a30.141645 30.141645 0 0 1-21.270338 51.475978z" fill="#3190e8" p-id="10609"></path></svg>