<?xml version="1.0" standalone="no"?><!DOCTYPE svg PUBLIC "-//W3C//DTD SVG 1.1//EN" "http://www.w3.org/Graphics/SVG/1.1/DTD/svg11.dtd"><svg t="1543581323779" class="icon" style="" viewBox="0 0 1024 1024" version="1.1" xmlns="http://www.w3.org/2000/svg" p-id="6539" xmlns:xlink="http://www.w3.org/1999/xlink" width="128" height="128"><defs><style type="text/css"></style></defs><path d="M968.81777778 938.78044445c0-3.64088889-0.45511111-7.168-1.25155556-10.58133334C946.63111111 768.91022222 840.59022222 635.904 695.75111111 574.57777778c83.85422222-56.54755555 138.92266667-151.32444445 138.92266667-258.84444445 0-173.16977778-142.90488889-313.57155555-319.03288889-313.57155555-176.24177778 0-319.03288889 140.40177778-319.03288889 313.57155555 0 107.52 55.06844445 202.41066667 139.03644445 258.95822222-143.36 60.75733333-248.71822222 191.71555555-271.01866667 348.95644445-1.82044445 4.77866667-2.73066667 9.89866667-2.73066667 15.24622222l0.45511111 4.096c0 24.68977778 20.36622222 44.71466667 45.51111111 44.71466667s45.51111111-20.02488889 45.51111112-44.71466667v-0.56888889h1.13777777C175.78666667 771.64088889 319.03288889 638.06577778 496.07111111 628.62222222c6.59911111 0.34133333 13.08444445 0.56888889 19.79733334 0.56888889 6.71288889 0 13.312-0.22755555 19.79733333-0.56888889 177.03822222 9.32977778 320.39822222 143.01866667 341.56088889 313.79911111h1.25155555v0.56888889c0 24.68977778 20.36622222 44.71466667 45.51111111 44.71466667s45.51111111-20.02488889 45.51111112-44.71466667l-0.68266667-4.20977777zM515.41333333 539.648c-125.83822222 0-227.89688889-100.23822222-227.89688888-224.02844445S389.57511111 91.70488889 515.41333333 91.70488889c125.83822222 0 227.89688889 100.23822222 227.89688889 224.02844444S641.25155555 539.648 515.41333333 539.648z" fill="#ffffff" p-id="6540"></path></svg>