<?xml version="1.0" standalone="no"?><!DOCTYPE svg PUBLIC "-//W3C//DTD SVG 1.1//EN" "http://www.w3.org/Graphics/SVG/1.1/DTD/svg11.dtd"><svg t="1543656898305" class="icon" style="" viewBox="0 0 1024 1024" version="1.1" xmlns="http://www.w3.org/2000/svg" p-id="5709" xmlns:xlink="http://www.w3.org/1999/xlink" width="128" height="128"><defs><style type="text/css"></style></defs><path d="M390.382022 644.799918c-61.291946 37.023203-70.382769-20.775774-70.382769-20.775774l-76.811198-194.149947c-29.559398-92.262185 25.577185-41.597058 25.577185-41.597059s47.30869 38.763998 83.216872 62.38421c35.885427 23.631589 76.788443 6.940428 76.788443 6.940429l502.179806-251.072837C838.289955 81.646743 685.247823 0 511.97605 0 229.204799 0 0 217.292293 0 485.352112c0 154.202662 75.889601 291.418342 194.115814 380.358224l-21.321906 132.755601s-10.399265 38.752621 25.622696 20.775774c24.541809-12.24246 87.108063-56.183336 124.358821-82.886918A535.232173 535.232173 0 0 0 511.998805 970.715602c282.748496 0 511.998805-217.292293 511.998806-485.352112 0-77.641774-19.319422-150.971381-53.53232-216.063496-160.005316 104.265712-532.137425 346.589058-580.083269 375.499924z" fill="#24af41" p-id="5710"></path></svg>