<?xml version="1.0" standalone="no"?><!DOCTYPE svg PUBLIC "-//W3C//DTD SVG 1.1//EN" "http://www.w3.org/Graphics/SVG/1.1/DTD/svg11.dtd"><svg t="1543656828493" class="icon" style="" viewBox="0 0 1024 1024" version="1.1" xmlns="http://www.w3.org/2000/svg" p-id="1895" xmlns:xlink="http://www.w3.org/1999/xlink" width="128" height="128"><defs><style type="text/css"></style></defs><path d="M265.605 568.472c-10.579 8.513-21.914 20.938-25.208 36.734-4.476 21.58-0.931 48.6 19.889 69.791 25.224 25.689 63.557 32.723 80.113 33.932 44.977 3.251 92.914-19.051 129.045-44.487 14.16-9.994 38.411-30.059 61.593-61.009-51.949-26.821-116.792-56.484-186.117-53.585-35.411 1.483-60.773 8.823-79.315 18.624zM924.354 687.07C947.281 633.255 960 574.098 960 512.002 960 264.977 759.045 64 512.003 64 264.955 64 64 264.977 64 512.002 64 759.045 264.955 960 512.003 960c149.083 0 281.303-73.255 362.8-185.608-76.998-38.272-203.898-101.267-282.063-139.385-37.305 42.521-92.444 85.137-154.737 103.685-39.131 11.626-74.409 16.068-111.296 8.527-36.526-7.478-63.425-24.579-79.106-41.721-7.985-8.745-17.158-19.866-23.801-33.095 0.623 1.675 1.05 2.67 1.05 2.67s-3.814-6.584-6.738-17.063a75.337 75.337 0 0 1-2.922-15.877 81.91 81.91 0 0 1-0.175-11.41c-0.328-6.743-0.059-13.809 1.461-21.056 3.662-17.71 11.22-38.338 30.775-57.482 42.93-42.036 100.433-44.292 130.212-44.116 44.122 0.251 120.786 19.554 185.339 42.382 17.88-38.081 29.353-78.811 36.752-105.961H331.145v-29.022h137.83V357.42H302.122v-29.023h166.853v-58.023c0-7.969 1.576-14.514 14.509-14.514h65.292v72.538h181.383v29.023H548.775v58.046h145.093s-14.569 81.225-60.126 161.281c101.108 36.11 243.36 91.741 290.612 110.322z" fill="#09A1E8" p-id="1896"></path></svg>