<?xml version="1.0" standalone="no"?><!DOCTYPE svg PUBLIC "-//W3C//DTD SVG 1.1//EN" "http://www.w3.org/Graphics/SVG/1.1/DTD/svg11.dtd"><svg t="1543053738192" class="icon" style="" viewBox="0 0 1024 1024" version="1.1" xmlns="http://www.w3.org/2000/svg" p-id="2299" xmlns:xlink="http://www.w3.org/1999/xlink" width="200" height="200"><defs><style type="text/css"></style></defs><path d="M144.6 914.6l349-400.4-261.2 60s107 14.2-30.2 103.2c0 0 119.2 10.4-23 95 0-0.2 53.2 14-34.6 142.2zM151.2 920.6L500.2 520l-23.8 266.8s-28.6-104-98 44c0 0-26.6-116.6-90.8 35.8 0 0.2-21.2-50.6-136.4 54z" fill="#8CD5CA" p-id="2300"></path><path d="M872.8 79L523.8 479.4l23.8-266.8s28.6 104 98-44c0 0 26.6 116.6 90.8-35.8 0-0.2 21.2 50.8 136.4-53.8zM879.4 84.8L530.6 485.4l261.2-60s-107-14.2 30.2-103.2c0 0-119.2-10.4 23-95 0 0-53.4-14 34.4-142.4z" fill="#71C6B8" p-id="2301"></path><path d="M470 502m-60 0a60 60 0 1 0 120 0 60 60 0 1 0-120 0Z" fill="#FB8B5D" p-id="2302"></path><path d="M512 383.8V436c10.6-4 18-14.2 18-26.2s-7.4-21.8-18-26z" fill="#EA6D4B" p-id="2303"></path><path d="M552 520m-40 0a40 40 0 1 0 80 0 40 40 0 1 0-80 0Z" fill="#EA6D4B" p-id="2304"></path><path d="M502 410m-28 0a28 28 0 1 0 56 0 28 28 0 1 0-56 0Z" fill="#FB8B5D" p-id="2305"></path><path d="M512 459.2v85.6c11.2-10.8 18-26 18-42.8s-6.8-32-18-42.8z" fill="#EA6D4B" p-id="2306"></path><path d="M451 452c5 0 9 4 9 9s-4 9-9 9-9-4-9-9 4-9 9-9z m43-62c2.2 0 4 1.8 4 4s-1.8 4-4 4-4-1.8-4-4 1.8-4 4-4z m48 98c3.4 0 6 2.6 6 6s-2.6 6-6 6-6-2.6-6-6 2.6-6 6-6z" fill="#FFFFFF" p-id="2307"></path></svg>